HIERARCHY
ROOT hip
{
	OFFSET 0.000000 0.000000 0.000000 
	CHANNELS 6 Xposition Yposition Zposition Xrotation Zrotation Yrotation
	JOINT abdomen
	{
		OFFSET 0.000000 3.402643 0.000000 
		CHANNELS 3 Xrotation Zrotation Yrotation
		JOINT chest
		{
			OFFSET 0.000000 8.438565 -0.680529 
			CHANNELS 3 Xrotation Zrotation Yrotation
			JOINT neck
			{
				OFFSET 0.000000 10.207942 -0.272212 
				CHANNELS 3 Xrotation Zrotation Yrotation
				JOINT head
				{
					OFFSET 0.000000 3.130431 0.000000 
					CHANNELS 3 Xrotation Zrotation Yrotation
					End Site
					{
						OFFSET 0.000000 3.130435 0.000000 
					}
				}
			}
			JOINT lCollar
			{
				OFFSET 3.470700 6.669187 -0.816635 
				CHANNELS 3 Yrotation Zrotation Xrotation
				JOINT lShldr
				{
					OFFSET 3.198488 0.000000 0.000000 
					CHANNELS 3 Zrotation Yrotation Xrotation
					JOINT lForeArm
					{
						OFFSET 10.139888 0.000000 0.000000 
						CHANNELS 3 Yrotation Zrotation Xrotation
						JOINT lHand
						{
							OFFSET 8.370511 0.000000 0.000000 
							CHANNELS 3 Zrotation Yrotation Xrotation
							End Site
							{
								OFFSET 4.083176 0.000000 0.000000 
							}
						}
					}
				}
			}
			JOINT rCollar
			{
				OFFSET -3.470700 6.669187 -0.816635 
				CHANNELS 3 Yrotation Zrotation Xrotation
				JOINT rShldr
				{
					OFFSET -3.198488 0.000000 0.000000 
					CHANNELS 3 Zrotation Yrotation Xrotation
					JOINT rForeArm
					{
						OFFSET -10.139888 0.000000 0.000000 
						CHANNELS 3 Yrotation Zrotation Xrotation
						JOINT rHand
						{
							OFFSET -8.370511 0.000000 0.000000 
							CHANNELS 3 Zrotation Yrotation Xrotation
							End Site
							{
								OFFSET -4.083176 0.000000 0.000000 
							}
						}
					}
				}
			}
		}
	}
	JOINT lThigh
	{
		OFFSET 5.308129 -1.633274 1.361059 
		CHANNELS 3 Xrotation Zrotation Yrotation
		JOINT lShin
		{
			OFFSET -2.041588 -20.007561 0.000000 
			CHANNELS 3 Xrotation Zrotation Yrotation
			JOINT lFoot
			{
				OFFSET 0.000000 -19.190928 -1.224953 
				CHANNELS 3 Xrotation Yrotation Zrotation
				End Site
				{
					OFFSET 0.000000 -2.449906 4.627600 
				}
			}
		}
	}
	JOINT rThigh
	{
		OFFSET -5.308129 -1.633274 1.361059 
		CHANNELS 3 Xrotation Zrotation Yrotation
		JOINT rShin
		{
			OFFSET 2.041588 -20.007561 0.000000 
			CHANNELS 3 Xrotation Zrotation Yrotation
			JOINT rFoot
			{
				OFFSET 0.000000 -19.190928 -1.224953 
				CHANNELS 3 Xrotation Yrotation Zrotation
				End Site
				{
					OFFSET 0.000000 -2.449906 4.627600 
				}
			}
		}
	}
}
MOTION
Frames: 18
Frame Time: 0.016667
-0.070341 45.701271 -1.239664 0.772185 -2.441180 -1.742260 -22.668800 -0.875375 0.333828 16.119600 -2.268580 0.068428 -5.915480 -7.980080 6.659050 3.468620 0.665042 3.139200 2.000000 -2.000000 0.000000 -88.007301 7.849130 170.744003 26.514000 -0.337186 0.061092 0.044830 0.007954 -134.080002 -2.000000 2.000000 0.000000 86.248497 -3.273810 -170.809006 -22.998301 0.340698 0.053418 -0.065887 -0.049861 -115.105003 -10.074673 -2.315351 1.149820 27.927416 2.727388 2.136597 -13.678535 -3.407109 -1.092766 -6.947563 5.168330 2.357220 22.948645 -2.836875 -1.774747 -16.449543 2.205116 0.724868 
-0.099654 45.688797 -1.223083 0.743046 -2.753670 -1.647460 -22.707500 -0.809511 0.370437 16.040899 -2.404630 0.101797 -7.006160 -7.678850 6.198390 2.921800 0.714898 2.878020 2.000000 -2.000000 0.000000 -88.035698 8.049120 168.576004 25.205400 -0.338547 0.058283 0.045079 0.002201 -132.643997 -2.000000 2.000000 0.000000 -93.780197 -176.300003 7.696280 -22.402599 0.341246 0.052107 -0.066651 -0.051735 -114.383003 -10.104648 -1.994682 0.900925 28.161949 2.741165 2.145967 -13.741445 -3.443157 -1.092332 -6.723835 5.563643 2.520877 22.626833 -2.809846 -1.764586 -16.211254 1.981063 0.651058 
-0.150170 45.680183 -1.192314 0.655416 -3.349390 -1.698960 -22.823601 -0.625788 0.443315 15.845000 -2.530490 0.178993 -7.826490 -7.440870 6.194950 2.521360 0.705848 2.843980 2.000000 -2.000000 0.000000 -88.005402 8.424590 166.261002 23.838200 -0.339901 0.055315 0.045443 0.006341 -131.160004 -2.000000 2.000000 0.000000 -93.818802 -175.737000 6.239860 -21.806900 0.341781 0.050790 -0.067470 -0.053675 -113.630997 -10.251041 -1.349662 0.653200 28.777514 2.775505 2.164065 -14.103771 -3.478147 -1.134694 -6.438396 6.332780 2.928757 22.205208 -2.791712 -1.747980 -15.933303 1.537529 0.523160 
-0.203199 45.674782 -1.189775 0.557678 -3.495930 -1.636100 -22.862200 -0.554021 0.551270 15.727700 -2.530060 0.232995 -8.477330 -7.093400 6.353280 2.238170 0.725854 2.908240 2.000000 -2.000000 0.000000 -88.003502 8.486000 163.242996 22.314699 -0.341326 0.051971 0.046088 0.011800 -129.197006 -2.000000 2.000000 0.000000 -93.828102 -175.330994 4.695920 -21.211201 0.342302 0.049467 -0.068371 -0.065494 -112.830002 -10.231211 -1.159313 0.539289 28.943638 2.782126 2.163144 -14.223582 -3.399727 -1.108341 -6.213397 6.607064 3.309746 21.979748 -2.774922 -1.719096 -15.621570 1.149110 0.427648 
-0.213072 45.658188 -1.124406 0.430296 -3.046790 -1.185470 -22.901899 -0.716605 0.673434 15.776400 -2.578900 0.273962 -8.677710 -6.683480 6.334590 2.130910 0.833396 2.903360 2.000000 -2.000000 0.000000 -87.961998 8.586100 160.009995 20.713100 -0.342727 0.048416 0.047209 0.018876 -126.639000 -2.000000 2.000000 0.000000 -93.769096 -174.798004 2.740640 -20.498301 0.342908 0.047878 -0.069893 -0.068797 -111.530998 -10.011933 -1.686651 0.368784 28.827217 2.772258 2.172331 -14.139645 -3.487418 -1.162422 -6.147984 6.107213 2.847845 22.399546 -2.812033 -1.748886 -16.345646 1.171405 0.404699 
-0.228755 45.645584 -1.093423 0.361850 -3.076110 -0.810930 -22.891600 -0.701220 0.825643 15.883300 -2.744760 0.350984 -8.847560 -6.018880 6.330970 2.043360 1.067770 2.923340 2.000000 -2.000000 0.000000 -87.890800 8.559610 156.876007 19.277599 -0.343898 0.045197 0.048476 0.025147 -124.352997 -2.000000 2.000000 0.000000 -93.798203 -174.391006 1.372410 -20.078400 0.343255 0.046938 -0.070425 -0.069907 -111.092003 -9.905926 -1.671533 0.193520 28.767151 2.777344 2.155005 -14.064313 -3.625211 -1.210897 -6.194036 6.125676 2.393839 22.742477 -2.830256 -1.766718 -16.343739 1.054024 0.361899 
-0.281660 45.631058 -1.070371 0.175998 -2.841780 -0.477949 -22.921301 -0.767422 0.843565 15.795700 -2.637370 0.346296 -8.947700 -5.896350 6.396880 1.984730 1.048330 2.952240 2.000000 -2.000000 0.000000 -87.790802 8.690940 154.395996 18.222900 -0.344707 0.042814 0.048973 0.027306 -123.561996 -2.000000 2.000000 0.000000 -93.729797 -174.257004 0.219721 -19.394800 0.343806 0.045403 -0.071934 -0.072943 -109.880997 -9.760073 -1.905275 0.098488 28.845276 2.785563 2.165507 -14.083834 -3.696711 -1.260346 -5.971669 5.930433 2.303510 22.917408 -2.851681 -1.778019 -15.495633 0.617643 0.214417 
-0.333526 45.633877 -1.085357 0.205393 -3.173810 -0.090020 -23.008101 -0.641343 0.929520 15.746200 -2.792880 0.410444 -9.161230 -5.724700 6.202980 1.838300 1.107090 2.849680 2.000000 -2.000000 0.000000 -87.671799 8.833880 152.735992 17.519699 -0.345222 0.041217 0.049627 0.029961 -122.585999 -2.000000 2.000000 0.000000 -93.544296 -174.145004 -1.704400 -18.750200 0.344308 0.043949 -0.074610 -0.077963 -107.849998 -9.951139 -1.516567 -0.137931 29.030540 2.793046 2.154852 -14.080812 -3.631162 -1.236152 -6.010866 6.399294 2.292872 22.840588 -2.835718 -1.776080 -15.242307 0.232827 0.092814 
-0.391272 45.624104 -1.079796 0.039114 -2.939450 0.397887 -23.027800 -0.677169 0.945090 15.639100 -2.695140 0.407325 -9.146510 -5.440630 5.958670 1.809200 1.263260 2.745460 2.000000 -2.000000 0.000000 -87.593201 9.028030 152.188995 17.412300 -0.345299 0.040973 0.049695 0.030226 -122.487999 -2.000000 2.000000 0.000000 -93.466202 -174.136993 -2.661450 -18.398600 0.344575 0.043154 -0.075740 -0.079962 -107.028999 -9.856764 -1.731079 -0.306416 29.150585 2.779188 2.179304 -14.074158 -3.734764 -1.269106 -5.764940 6.237011 2.254326 22.820801 -2.833332 -1.766197 -15.224272 -0.106290 -0.024409 
-0.455820 45.600185 -1.067989 -0.195596 -3.085920 0.791764 -22.998199 -0.568654 0.845503 15.580700 -2.617070 0.383787 -9.106920 -5.170070 5.795180 1.809400 1.438910 2.680120 2.000000 -2.000000 0.000000 -87.594597 9.411400 153.369003 18.066601 -0.344823 0.042460 0.048405 0.024827 -124.471001 -2.000000 2.000000 0.000000 -93.515099 -174.264008 -2.700190 -18.281500 0.344663 0.042888 -0.076041 -0.080484 -106.814003 -9.725572 -1.547611 -0.575650 29.383419 2.798935 2.160691 -14.161778 -3.821422 -1.307422 -5.506152 6.516289 2.232884 22.828514 -2.851420 -1.769497 -15.216034 -0.527759 -0.142092 
-0.488420 45.582180 -1.078673 -0.293400 -3.105430 1.363530 -23.018101 -0.590413 0.759651 15.482600 -2.704220 0.337408 -8.952400 -5.320020 5.625110 1.877760 1.419320 2.594680 2.000000 -2.000000 0.000000 -87.470802 9.954640 156.207993 19.424000 -0.343783 0.045527 0.046721 0.016046 -127.664001 -2.000000 2.000000 0.000000 -93.534599 -174.292007 -2.143480 -18.789301 0.344278 0.044037 -0.074929 -0.078536 -107.614998 -9.778015 -1.557011 -0.960721 29.588755 2.814619 2.180973 -14.091769 -3.993218 -1.383820 -5.387687 6.510718 1.712218 22.838728 -2.844824 -1.758397 -15.295547 -0.473505 -0.157172 
-0.503216 45.576790 -1.108801 -0.283510 -2.665980 2.161610 -22.980400 -0.761533 0.609048 15.521800 -2.684930 0.236198 -8.971940 -5.629810 5.398540 1.877690 1.360770 2.469900 2.000000 -2.000000 0.000000 -87.385902 10.244700 159.332993 21.103800 -0.342395 0.049286 0.045541 0.007293 -130.817993 -2.000000 2.000000 0.000000 -93.681000 -174.455002 -0.697746 -19.677999 0.343580 0.046039 -0.072764 -0.074546 -109.236000 -9.792307 -2.097034 -1.443929 29.365541 2.787902 2.178175 -13.854933 -4.132146 -1.447051 -5.443720 5.965455 0.898158 23.113052 -2.860836 -1.776962 -15.588233 -0.467438 -0.210416 
-0.563308 45.576397 -1.174845 -0.224884 -2.832010 2.716180 -22.980000 -0.648544 0.465759 15.453800 -2.567920 0.189936 -8.939950 -5.805570 5.138820 1.877690 1.360770 2.342950 2.000000 -2.000000 0.000000 -87.349503 10.496400 162.662003 23.174101 -0.340533 0.053862 0.044858 0.008500 -133.884995 -2.000000 2.000000 0.000000 -93.934898 -174.520004 0.689141 -21.279499 0.342243 0.049619 -0.070857 -0.070792 -110.739998 -10.138143 -1.851830 -1.672261 29.572039 2.790016 2.194950 -13.679087 -4.479980 -1.512114 -5.599830 6.258339 0.882589 23.145346 -2.840217 -1.782761 -15.411545 -0.922707 -0.346385 
-0.672715 45.568169 -1.249899 -0.352154 -3.320250 2.852390 -22.978701 -0.333410 0.416919 15.210400 -2.343290 0.219044 -8.471160 -6.166040 4.912910 2.053450 1.301990 2.231930 2.000000 -2.000000 0.000000 -87.283501 10.855600 166.001007 25.683901 -0.338057 0.059314 0.044633 -0.000110 -136.960999 -2.000000 2.000000 0.000000 -94.384399 -174.513000 3.413740 -23.457300 0.340266 0.054425 -0.066872 -0.052265 -114.178001 -10.339434 -1.137123 -1.675175 29.971870 2.815193 2.195233 -13.691768 -4.947800 -1.605188 -5.534071 7.065382 1.603177 22.982349 -2.810833 -1.798927 -14.971585 -1.725798 -0.553917 
-0.711919 45.548748 -1.332984 -0.596457 -2.880700 3.692050 -22.852501 -0.509087 0.309837 15.034600 -2.294000 0.143414 -7.829340 -6.497040 4.567820 2.278030 1.243130 2.082560 2.000000 -2.000000 0.000000 -86.934196 11.138600 170.100998 28.623400 -0.334856 0.065554 0.044899 -0.009239 -140.223007 -2.000000 2.000000 0.000000 -94.736504 -174.516998 5.992820 -26.592100 0.337102 0.061202 -0.062315 -0.040017 -118.846001 -10.233605 -1.572906 -2.071481 30.014589 2.787353 2.216774 -13.412807 -5.510365 -1.774208 -5.470288 6.596467 0.991073 23.472176 -2.833529 -1.815684 -15.336857 -1.797753 -0.588378 
-0.793904 45.520447 -1.502963 -0.753017 -3.046610 4.288010 -22.481600 -0.574437 0.163767 14.985200 -2.420170 0.079547 -6.616170 -6.494710 4.386070 2.844730 1.339910 2.044030 2.000000 -2.000000 0.000000 93.601997 169.214996 -6.529500 31.699600 -0.331169 0.071899 0.045227 -0.013794 -141.852997 -2.000000 2.000000 0.000000 84.989197 -4.922560 -171.505997 -30.810900 0.332269 0.070030 -0.059053 -0.028609 -123.084000 -10.553363 -1.396114 -2.741235 30.436119 2.801293 2.243119 -13.356693 -5.752439 -1.831160 -5.694469 6.893610 0.994796 24.010376 -2.787895 -1.857538 -15.618243 -2.211357 -0.753033 
-0.931668 45.461304 -1.786448 -0.723528 -2.812280 4.732720 -22.130600 -0.716481 0.091122 14.702200 -2.331540 0.033726 -5.392090 -6.984780 4.673320 3.410970 1.163170 2.215350 2.000000 -2.000000 0.000000 94.197098 169.460007 -3.052360 35.303101 -0.326424 0.079067 0.045877 -0.019939 -144.059998 -2.000000 2.000000 0.000000 84.792900 -4.205000 -169.335999 -35.644901 0.325951 0.079676 -0.056522 -0.026027 -127.585999 -11.103686 -1.690249 -3.521187 30.891024 2.770664 2.267550 -13.365366 -5.272059 -1.734764 -6.526938 6.946272 1.732245 25.215139 -2.772276 -1.953923 -15.835645 -3.176363 -1.043730 
-1.079511 45.370632 -2.194158 -0.469273 -2.704990 5.197900 -21.535700 -0.927468 -0.053927 14.555200 -2.418330 -0.048799 -6.191040 -7.077530 4.590160 3.098280 1.095380 2.141740 2.000000 -2.000000 0.000000 94.802597 170.078995 -0.179802 39.248402 -0.320724 0.086556 0.046602 -0.025056 -145.906006 -2.000000 2.000000 0.000000 84.557297 -2.549890 -167.173996 -40.478901 0.318842 0.088755 -0.055345 -0.017412 -130.690994 -12.307874 -1.935291 -4.308515 31.783398 2.694982 2.350330 -13.180331 -4.841181 -1.610462 -8.026658 7.149046 2.504354 26.938351 -2.688649 -2.094631 -16.155594 -4.326366 -1.434766 
